<svg xmlns="http://www.w3.org/2000/svg" width="64" height="64" viewBox="0 0 64 64" fill="none"><circle cx="32" cy="32" r="32" fill="black"></circle><path fill-rule="evenodd" clip-rule="evenodd" d="M16.9026 47.6379C8.41527 39.1505 8.41527 25.3898 16.9026 16.9025C25.39 8.41515 39.1507 8.41515 47.638 16.9025C49.0201 18.2846 50.1771 19.8065 51.109 21.4227C42.8001 16.6314 31.9991 17.7884 24.8938 24.8937C17.7885 31.999 16.6315 42.8 21.4228 51.1089C19.8066 50.177 18.2847 49.0199 16.9026 47.6379ZM36.7766 53.5337C37.9848 44.7942 33.7302 33.73 24.8938 24.8937C33.7302 33.73 44.7943 37.9847 53.5338 36.7764C52.6942 40.7567 50.7289 44.547 47.638 47.6379C44.5471 50.7288 40.7568 52.694 36.7766 53.5337Z" fill="white"></path><style>@media (prefers-color-scheme: light) { :root { filter: none; } }
@media (prefers-color-scheme: dark) { :root { filter: none; } }
</style></svg>